<?xml version="1.0" encoding="utf-8"?>
<svg width="178" height="92" viewBox="0 0 178 92" fill="none" xmlns="http://www.w3.org/2000/svg">
  <path d="M24.4946 73.7823L5.5354 68.6519L11.3022 57.8319L31.2065 63.2708L20.5408 50.6378L16.3555 54.1095L1.17651 35.8638L7.73413 30.2513L10.0293 28.3612L10.2607 28.1297L18.8049 20.9356L37.7642 26.066L31.9973 36.8861L13.3467 31.7557L22.5081 42.8265L26.5391 39.2584L38.2271 53.0872L38.2271 62.2486L34.0417 65.7203L24.4946 73.7823ZM30.8015 31.1964L31.5151 29.7884L18.3228 26.1431L16.9148 27.4161L30.8015 31.1964ZM7.57983 35.401L18.0142 48.034L19.1907 47.0118L8.69849 34.3595L7.57983 35.401ZM23.8582 46.6068L35.0061 59.7991L36.1826 58.7769L25.0347 45.5845L23.8582 46.6068ZM12.4788 63.5216L11.7651 64.9295L24.9575 68.5748L26.3848 67.3018L12.4788 63.5216ZM43.6975 69.8284L46.147 60.6671L46.147 47.5518L43.6975 46.9346L46.7835 35.401L60.6895 39.1812L58.0857 48.9791L58.0857 61.3807L60.6895 62.0943L57.6035 73.628L43.6975 69.8284ZM51.3738 65.026L49.0786 64.3895L48.6736 65.971L55.1541 67.7069L55.5591 66.1253L52.9553 65.4117L52.9553 44.003L55.2312 44.6395L55.5591 43.0579L49.1558 41.3221L48.77 42.9036L51.3738 43.6173L51.3738 65.026ZM56.8127 33.9737L45.1248 30.7335L47.4199 22.5172L59.1079 25.7574L56.8127 33.9737ZM49.7922 28.4383L54.2861 29.7113L54.6912 28.2069L50.178 26.9339L49.7922 28.4383ZM78.882 73.7823L66.5575 70.4649L72.2472 59.6449L86.4618 63.5216L79.9042 54.1866L73.6745 58.5455L65.3617 46.6068L74.5424 38.8726L83.453 31.3699L95.6232 34.6102L89.8564 45.4303L76.5868 41.785L82.4308 50.1556L88.6027 45.816L93.7331 53.1644L92.9423 61.8629L89.8564 64.4666L78.882 73.7823ZM81.7944 37.754L88.6027 39.6634L89.3163 38.2362L83.2216 36.5775L81.7944 37.754ZM71.6108 46.3753L75.7189 52.2965L76.9919 51.4285L72.8066 45.4303L71.6108 46.3753ZM85.3625 52.8558L89.9335 59.4134L91.1293 58.3719L86.6161 51.9879L85.3625 52.8558ZM72.8066 66.8389L79.1134 68.5748L80.5407 67.3018L73.5009 65.4117L72.8066 66.8389ZM100.3 69.8284L102.749 60.6671L102.749 32.5465L100.3 31.91L103.385 20.3763L116.501 23.9444L117.6 19.7591L137.196 25.1209L134.283 36.0953L134.283 53.3958L122.345 60.3585L114.688 58.2176L114.688 61.3807L117.291 62.0943L114.206 73.628L100.3 69.8284ZM127.571 29.4605L127.571 49.3841L129.134 49.7699L129.134 29.9427L131.757 30.6563L132.143 29.1519L119.972 25.8345L119.664 27.2618L127.571 29.4605ZM107.976 65.026L105.681 64.3895L105.276 65.971L111.756 67.7069L112.161 66.1253L109.557 65.4117L109.557 28.9976L111.93 29.6341L112.315 28.1297L105.758 26.3167L105.372 27.879L107.976 28.5926L107.976 65.026ZM114.688 33.9737L114.688 50.7921L115.941 46.1439L122.345 47.9569L122.345 33.4144L115.324 31.5242L114.688 33.9737ZM117.928 53.6466L123.54 55.2281L125.431 54.1095L118.314 52.1422L117.928 53.6466ZM142.663 69.8284L145.112 60.6671L145.112 27.879L157.051 23.0765L157.051 36.5003L173.078 27.0111L173.078 40.8399L167.716 44.003L162.663 42.9036L173.078 48.9791L173.078 68.8062L161.159 73.628L161.159 55.7681L157.051 53.3958L157.051 61.3807L159.654 62.0943L156.569 73.628L142.663 69.8284ZM150.339 65.026L148.044 64.3895L147.639 65.971L154.119 67.7069L154.524 66.1253L151.92 65.4117L151.92 29.2291L150.339 29.8656L150.339 65.026ZM162.74 39.1041L165.036 39.5863L169.529 36.9632L169.529 35.1502L162.74 39.1041ZM156.974 47.3204L166.366 52.8558L166.366 67.4754L167.948 66.8389L167.948 51.9879L157.764 45.9703L156.974 47.3204Z" fill="#008A45" />
</svg>